<svg width="228" height="48" viewBox="0 0 228 48" fill="none" xmlns="http://www.w3.org/2000/svg">
<path d="M0.52 16.4V11.8H20.52V16.4H12.92V39H8.12V16.4H0.52ZM36.6775 39L34.9975 33.68H25.6775L23.9975 39H19.2375L28.3175 11.8H32.5575L41.6775 39H36.6775ZM28.2775 25.36L27.0375 29.28H33.5975L32.3575 25.36L30.3575 18.48L28.2775 25.36ZM61.9009 34.4V39H46.2209V11.8H51.0209V34.4H61.9009Z" fill="white"/>
<path d="M73.6 35.83C73.6 35.0233 73.76 34.2567 74.08 33.53C74.4 32.7967 74.8967 32.12 75.57 31.5L76.12 32.06C75.5467 32.6267 75.1233 33.22 74.85 33.84C74.5833 34.4533 74.45 35.1167 74.45 35.83V36.2C74.45 36.92 74.5833 37.59 74.85 38.21C75.1233 38.8233 75.5467 39.41 76.12 39.97L75.57 40.53C74.8967 39.91 74.4 39.2367 74.08 38.51C73.76 37.7767 73.6 37.0067 73.6 36.2V35.83ZM76.2843 33.02V32.2H81.1143V33.02H79.1343V39H78.2643V33.02H76.2843ZM85.0481 38.71C84.7481 38.8567 84.4481 38.9567 84.1481 39.01C83.8481 39.07 83.5715 39.1 83.3181 39.1C82.6048 39.1 82.0715 38.8967 81.7181 38.49C81.3715 38.0833 81.1981 37.5267 81.1981 36.82V36.22C81.1981 35.5333 81.3715 34.9833 81.7181 34.57C82.0715 34.1567 82.5681 33.95 83.2081 33.95C83.5481 33.95 83.8581 34.02 84.1381 34.16C84.4248 34.2933 84.6515 34.5 84.8181 34.78C84.9915 35.0533 85.0781 35.4067 85.0781 35.84C85.0781 36.12 85.0381 36.44 84.9581 36.8H82.0081V36.82C82.0081 37.3267 82.1115 37.71 82.3181 37.97C82.5315 38.23 82.8715 38.36 83.3381 38.36C83.5515 38.36 83.7848 38.3333 84.0381 38.28C84.2981 38.2267 84.5515 38.1433 84.7981 38.03L85.0481 38.71ZM83.2081 34.67C82.8215 34.67 82.5281 34.7967 82.3281 35.05C82.1348 35.2967 82.0281 35.6467 82.0081 36.1H84.2481C84.2681 35.98 84.2781 35.8667 84.2781 35.76C84.2781 35.3867 84.1715 35.1133 83.9581 34.94C83.7515 34.76 83.5015 34.67 83.2081 34.67ZM87.0772 36.23V36.82C87.0772 37.3267 87.1705 37.71 87.3572 37.97C87.5439 38.2233 87.8405 38.35 88.2472 38.35C88.6472 38.35 89.0772 38.2467 89.5372 38.04L89.7872 38.73C89.2405 38.9767 88.7105 39.1 88.1972 39.1C87.5572 39.1 87.0705 38.8967 86.7372 38.49C86.4039 38.0833 86.2372 37.5267 86.2372 36.82V36.23C86.2372 35.5233 86.4039 34.9667 86.7372 34.56C87.0705 34.1533 87.5572 33.95 88.1972 33.95C88.4372 33.95 88.6839 33.9833 88.9372 34.05C89.1972 34.11 89.4572 34.1967 89.7172 34.31L89.4672 35.01C89.2472 34.9167 89.0339 34.8433 88.8272 34.79C88.6272 34.7367 88.4339 34.71 88.2472 34.71C87.8405 34.71 87.5439 34.84 87.3572 35.1C87.1705 35.3533 87.0772 35.73 87.0772 36.23ZM93.3694 34.72C93.1827 34.72 92.9627 34.7667 92.7094 34.86C92.4627 34.9533 92.1627 35.1433 91.8094 35.43V39H90.9894V31.6H91.8094V34.71C92.156 34.4167 92.4694 34.2167 92.7494 34.11C93.0294 34.0033 93.3027 33.95 93.5694 33.95C94.0294 33.95 94.3794 34.0967 94.6194 34.39C94.866 34.6767 94.9894 35.0867 94.9894 35.62V39H94.1694V35.74C94.1694 35.06 93.9027 34.72 93.3694 34.72ZM99.0823 34.72C98.8956 34.72 98.6756 34.7667 98.4223 34.86C98.1756 34.9533 97.8756 35.1433 97.5223 35.43V39H96.7023V34.05H97.4823V34.74C97.8356 34.44 98.1556 34.2333 98.4423 34.12C98.7356 34.0067 99.0156 33.95 99.2823 33.95C99.7423 33.95 100.092 34.0967 100.332 34.39C100.579 34.6767 100.702 35.0867 100.702 35.62V39H99.8823V35.74C99.8823 35.06 99.6156 34.72 99.0823 34.72ZM106.335 36.22V36.82C106.335 37.5267 106.152 38.0833 105.785 38.49C105.425 38.8967 104.908 39.1 104.235 39.1C103.568 39.1 103.052 38.8967 102.685 38.49C102.318 38.0833 102.135 37.5267 102.135 36.82V36.22C102.135 35.5267 102.315 34.9767 102.675 34.57C103.042 34.1567 103.562 33.95 104.235 33.95C104.908 33.95 105.425 34.1567 105.785 34.57C106.152 34.9767 106.335 35.5267 106.335 36.22ZM105.485 36.22C105.485 35.7467 105.378 35.3767 105.165 35.11C104.952 34.8367 104.642 34.7 104.235 34.7C103.835 34.7 103.525 34.8367 103.305 35.11C103.092 35.3767 102.985 35.7467 102.985 36.22V36.82C102.985 37.3133 103.092 37.6933 103.305 37.96C103.525 38.2267 103.835 38.36 104.235 38.36C104.642 38.36 104.952 38.2267 105.165 37.96C105.378 37.6933 105.485 37.3133 105.485 36.82V36.22ZM107.815 37.8V31.6H108.635V37.76C108.635 37.94 108.662 38.0767 108.715 38.17C108.775 38.2567 108.892 38.3 109.065 38.3H109.225V39.05H108.995C108.555 39.05 108.249 38.9333 108.075 38.7C107.902 38.4667 107.815 38.1667 107.815 37.8ZM113.512 39V38.3C113.165 38.6 112.855 38.81 112.582 38.93C112.309 39.0433 112.035 39.1 111.762 39.1C111.322 39.1 110.985 38.9567 110.752 38.67C110.519 38.3767 110.402 37.9667 110.402 37.44V34.05H111.222V37.32C111.222 37.6667 111.282 37.9233 111.402 38.09C111.529 38.25 111.715 38.33 111.962 38.33C112.149 38.33 112.359 38.2833 112.592 38.19C112.825 38.0967 113.115 37.91 113.462 37.63V34.05H114.282V39H113.512ZM120.048 36.82C120.048 37.5133 119.875 38.0667 119.528 38.48C119.181 38.8933 118.671 39.1 117.998 39.1C117.331 39.1 116.671 38.9233 116.018 38.57V31.6H116.838V34.72C117.138 34.44 117.411 34.2433 117.658 34.13C117.911 34.01 118.168 33.95 118.428 33.95C118.948 33.95 119.348 34.15 119.628 34.55C119.908 34.95 120.048 35.5133 120.048 36.24V36.82ZM118.228 34.72C118.041 34.72 117.841 34.77 117.628 34.87C117.421 34.97 117.158 35.1767 116.838 35.49V38.11C117.231 38.2767 117.601 38.36 117.948 38.36C118.395 38.36 118.715 38.2233 118.908 37.95C119.101 37.67 119.198 37.2933 119.198 36.82V36.24C119.198 35.72 119.118 35.3367 118.958 35.09C118.798 34.8433 118.555 34.72 118.228 34.72ZM125.156 38.71C124.856 38.8567 124.556 38.9567 124.256 39.01C123.956 39.07 123.679 39.1 123.426 39.1C122.712 39.1 122.179 38.8967 121.826 38.49C121.479 38.0833 121.306 37.5267 121.306 36.82V36.22C121.306 35.5333 121.479 34.9833 121.826 34.57C122.179 34.1567 122.676 33.95 123.316 33.95C123.656 33.95 123.966 34.02 124.246 34.16C124.532 34.2933 124.759 34.5 124.926 34.78C125.099 35.0533 125.186 35.4067 125.186 35.84C125.186 36.12 125.146 36.44 125.066 36.8H122.116V36.82C122.116 37.3267 122.219 37.71 122.426 37.97C122.639 38.23 122.979 38.36 123.446 38.36C123.659 38.36 123.892 38.3333 124.146 38.28C124.406 38.2267 124.659 38.1433 124.906 38.03L125.156 38.71ZM123.316 34.67C122.929 34.67 122.636 34.7967 122.436 35.05C122.242 35.2967 122.136 35.6467 122.116 36.1H124.356C124.376 35.98 124.386 35.8667 124.386 35.76C124.386 35.3867 124.279 35.1133 124.066 34.94C123.859 34.76 123.609 34.67 123.316 34.67ZM132.562 39L132.052 37.42H129.472L128.962 39H128.112L130.372 32.2H131.192L133.462 39H132.562ZM130.102 35.46L129.722 36.63H131.792L131.412 35.46L130.762 33.36L130.102 35.46ZM137.584 39V38.3C137.238 38.6 136.928 38.81 136.654 38.93C136.381 39.0433 136.108 39.1 135.834 39.1C135.394 39.1 135.058 38.9567 134.824 38.67C134.591 38.3767 134.474 37.9667 134.474 37.44V34.05H135.294V37.32C135.294 37.6667 135.354 37.9233 135.474 38.09C135.601 38.25 135.788 38.33 136.034 38.33C136.221 38.33 136.431 38.2833 136.664 38.19C136.898 38.0967 137.188 37.91 137.534 37.63V34.05H138.354V39H137.584ZM142.84 38.82C142.467 39.0067 142.07 39.1 141.65 39.1C141.29 39.1 141.007 39.0267 140.8 38.88C140.6 38.7333 140.457 38.5367 140.37 38.29C140.29 38.0433 140.25 37.77 140.25 37.47V34.77H139.39V34.05H140.25V32.67H141.07V34.05H142.69V34.77H141.07V37.44C141.07 37.7867 141.127 38.0267 141.24 38.16C141.36 38.2867 141.544 38.35 141.79 38.35C141.91 38.35 142.034 38.3367 142.16 38.31C142.294 38.2767 142.437 38.2233 142.59 38.15L142.84 38.82ZM147.839 36.22V36.82C147.839 37.5267 147.656 38.0833 147.289 38.49C146.929 38.8967 146.412 39.1 145.739 39.1C145.072 39.1 144.556 38.8967 144.189 38.49C143.822 38.0833 143.639 37.5267 143.639 36.82V36.22C143.639 35.5267 143.819 34.9767 144.179 34.57C144.546 34.1567 145.066 33.95 145.739 33.95C146.412 33.95 146.929 34.1567 147.289 34.57C147.656 34.9767 147.839 35.5267 147.839 36.22ZM146.989 36.22C146.989 35.7467 146.882 35.3767 146.669 35.11C146.456 34.8367 146.146 34.7 145.739 34.7C145.339 34.7 145.029 34.8367 144.809 35.11C144.596 35.3767 144.489 35.7467 144.489 36.22V36.82C144.489 37.3133 144.596 37.6933 144.809 37.96C145.029 38.2267 145.339 38.36 145.739 38.36C146.146 38.36 146.456 38.2267 146.669 37.96C146.882 37.6933 146.989 37.3133 146.989 36.82V36.22ZM151.659 34.72C151.473 34.72 151.263 34.77 151.029 34.87C150.796 34.9633 150.503 35.15 150.149 35.43V39H149.329V34.05H150.109V34.74C150.463 34.4467 150.776 34.2433 151.049 34.13C151.323 34.01 151.593 33.95 151.859 33.95C152.173 33.95 152.433 34.0233 152.639 34.17C152.846 34.31 152.999 34.5133 153.099 34.78C153.466 34.4667 153.793 34.25 154.079 34.13C154.373 34.01 154.659 33.95 154.939 33.95C155.379 33.95 155.716 34.0967 155.949 34.39C156.183 34.6767 156.299 35.0867 156.299 35.62V39H155.479V35.74C155.479 35.06 155.233 34.72 154.739 34.72C154.553 34.72 154.339 34.77 154.099 34.87C153.866 34.9633 153.573 35.15 153.219 35.43C153.226 35.4567 153.229 35.4867 153.229 35.52C153.229 35.5533 153.229 35.5867 153.229 35.62V39H152.409V35.74C152.409 35.06 152.159 34.72 151.659 34.72ZM161.641 39.05C161.334 39.05 161.087 38.98 160.901 38.84C160.721 38.7 160.594 38.5267 160.521 38.32C160.194 38.6067 159.897 38.81 159.631 38.93C159.364 39.0433 159.097 39.1 158.831 39.1C158.397 39.1 158.077 38.96 157.871 38.68C157.664 38.4 157.561 38.0567 157.561 37.65C157.561 37.3767 157.611 37.1333 157.711 36.92C157.811 36.7067 157.981 36.54 158.221 36.42C158.461 36.2933 158.784 36.23 159.191 36.23C159.371 36.23 159.567 36.2433 159.781 36.27C159.994 36.29 160.211 36.3167 160.431 36.35V35.68C160.431 35.3067 160.347 35.0533 160.181 34.92C160.021 34.78 159.784 34.71 159.471 34.71C159.044 34.71 158.567 34.8267 158.041 35.06L157.781 34.38C158.087 34.24 158.381 34.1333 158.661 34.06C158.941 33.9867 159.224 33.95 159.511 33.95C159.977 33.95 160.334 34.0267 160.581 34.18C160.827 34.3333 160.997 34.5367 161.091 34.79C161.184 35.0433 161.231 35.32 161.231 35.62V37.76C161.231 37.9133 161.261 38.0433 161.321 38.15C161.381 38.25 161.501 38.3 161.681 38.3H161.791V39.05H161.641ZM158.371 37.64C158.371 37.8667 158.424 38.05 158.531 38.19C158.637 38.33 158.791 38.4 158.991 38.4C159.164 38.4 159.364 38.35 159.591 38.25C159.817 38.1433 160.097 37.9333 160.431 37.62V36.99C159.977 36.9167 159.577 36.88 159.231 36.88C158.924 36.88 158.704 36.9433 158.571 37.07C158.437 37.1967 158.371 37.3867 158.371 37.64ZM165.672 38.82C165.299 39.0067 164.902 39.1 164.482 39.1C164.122 39.1 163.839 39.0267 163.632 38.88C163.432 38.7333 163.289 38.5367 163.202 38.29C163.122 38.0433 163.082 37.77 163.082 37.47V34.77H162.222V34.05H163.082V32.67H163.902V34.05H165.522V34.77H163.902V37.44C163.902 37.7867 163.959 38.0267 164.072 38.16C164.192 38.2867 164.376 38.35 164.622 38.35C164.742 38.35 164.866 38.3367 164.992 38.31C165.126 38.2767 165.269 38.2233 165.422 38.15L165.672 38.82ZM167.621 32.84H166.701V31.92H167.621V32.84ZM167.571 39H166.751V34.05H167.571V39ZM169.919 36.23V36.82C169.919 37.3267 170.012 37.71 170.199 37.97C170.386 38.2233 170.682 38.35 171.089 38.35C171.489 38.35 171.919 38.2467 172.379 38.04L172.629 38.73C172.082 38.9767 171.552 39.1 171.039 39.1C170.399 39.1 169.912 38.8967 169.579 38.49C169.246 38.0833 169.079 37.5267 169.079 36.82V36.23C169.079 35.5233 169.246 34.9667 169.579 34.56C169.912 34.1533 170.399 33.95 171.039 33.95C171.279 33.95 171.526 33.9833 171.779 34.05C172.039 34.11 172.299 34.1967 172.559 34.31L172.309 35.01C172.089 34.9167 171.876 34.8433 171.669 34.79C171.469 34.7367 171.276 34.71 171.089 34.71C170.682 34.71 170.386 34.84 170.199 35.1C170.012 35.3533 169.919 35.73 169.919 36.23ZM179.909 38.19V39H176.189V32.2H177.059V38.19H179.909ZM183.893 39V38.3C183.546 38.6 183.236 38.81 182.963 38.93C182.69 39.0433 182.416 39.1 182.143 39.1C181.703 39.1 181.366 38.9567 181.133 38.67C180.9 38.3767 180.783 37.9667 180.783 37.44V34.05H181.603V37.32C181.603 37.6667 181.663 37.9233 181.783 38.09C181.91 38.25 182.096 38.33 182.343 38.33C182.53 38.33 182.74 38.2833 182.973 38.19C183.206 38.0967 183.496 37.91 183.843 37.63V34.05H184.663V39H183.893ZM190.429 36.82C190.429 37.5133 190.255 38.0667 189.909 38.48C189.562 38.8933 189.052 39.1 188.379 39.1C187.712 39.1 187.052 38.9233 186.399 38.57V31.6H187.219V34.72C187.519 34.44 187.792 34.2433 188.039 34.13C188.292 34.01 188.549 33.95 188.809 33.95C189.329 33.95 189.729 34.15 190.009 34.55C190.289 34.95 190.429 35.5133 190.429 36.24V36.82ZM188.609 34.72C188.422 34.72 188.222 34.77 188.009 34.87C187.802 34.97 187.539 35.1767 187.219 35.49V38.11C187.612 38.2767 187.982 38.36 188.329 38.36C188.775 38.36 189.095 38.2233 189.289 37.95C189.482 37.67 189.579 37.2933 189.579 36.82V36.24C189.579 35.72 189.499 35.3367 189.339 35.09C189.179 34.8433 188.935 34.72 188.609 34.72ZM194.546 34.77C194.246 34.77 193.953 34.8233 193.666 34.93C193.386 35.0367 193.086 35.24 192.766 35.54V39H191.946V34.05H192.726V34.85C193.066 34.5167 193.376 34.2833 193.656 34.15C193.943 34.0167 194.24 33.95 194.546 33.95V34.77ZM196.488 32.84H195.568V31.92H196.488V32.84ZM196.438 39H195.618V34.05H196.438V39ZM198.786 36.23V36.82C198.786 37.3267 198.88 37.71 199.066 37.97C199.253 38.2233 199.55 38.35 199.956 38.35C200.356 38.35 200.786 38.2467 201.246 38.04L201.496 38.73C200.95 38.9767 200.42 39.1 199.906 39.1C199.266 39.1 198.78 38.8967 198.446 38.49C198.113 38.0833 197.946 37.5267 197.946 36.82V36.23C197.946 35.5233 198.113 34.9667 198.446 34.56C198.78 34.1533 199.266 33.95 199.906 33.95C200.146 33.95 200.393 33.9833 200.646 34.05C200.906 34.11 201.166 34.1967 201.426 34.31L201.176 35.01C200.956 34.9167 200.743 34.8433 200.536 34.79C200.336 34.7367 200.143 34.71 199.956 34.71C199.55 34.71 199.253 34.84 199.066 35.1C198.88 35.3533 198.786 35.73 198.786 36.23ZM206.318 39.05C206.012 39.05 205.765 38.98 205.578 38.84C205.398 38.7 205.272 38.5267 205.198 38.32C204.872 38.6067 204.575 38.81 204.308 38.93C204.042 39.0433 203.775 39.1 203.508 39.1C203.075 39.1 202.755 38.96 202.548 38.68C202.342 38.4 202.238 38.0567 202.238 37.65C202.238 37.3767 202.288 37.1333 202.388 36.92C202.488 36.7067 202.658 36.54 202.898 36.42C203.138 36.2933 203.462 36.23 203.868 36.23C204.048 36.23 204.245 36.2433 204.458 36.27C204.672 36.29 204.888 36.3167 205.108 36.35V35.68C205.108 35.3067 205.025 35.0533 204.858 34.92C204.698 34.78 204.462 34.71 204.148 34.71C203.722 34.71 203.245 34.8267 202.718 35.06L202.458 34.38C202.765 34.24 203.058 34.1333 203.338 34.06C203.618 33.9867 203.902 33.95 204.188 33.95C204.655 33.95 205.012 34.0267 205.258 34.18C205.505 34.3333 205.675 34.5367 205.768 34.79C205.862 35.0433 205.908 35.32 205.908 35.62V37.76C205.908 37.9133 205.938 38.0433 205.998 38.15C206.058 38.25 206.178 38.3 206.358 38.3H206.468V39.05H206.318ZM203.048 37.64C203.048 37.8667 203.102 38.05 203.208 38.19C203.315 38.33 203.468 38.4 203.668 38.4C203.842 38.4 204.042 38.35 204.268 38.25C204.495 38.1433 204.775 37.9333 205.108 37.62V36.99C204.655 36.9167 204.255 36.88 203.908 36.88C203.602 36.88 203.382 36.9433 203.248 37.07C203.115 37.1967 203.048 37.3867 203.048 37.64ZM210.35 38.82C209.977 39.0067 209.58 39.1 209.16 39.1C208.8 39.1 208.517 39.0267 208.31 38.88C208.11 38.7333 207.967 38.5367 207.88 38.29C207.8 38.0433 207.76 37.77 207.76 37.47V34.77H206.9V34.05H207.76V32.67H208.58V34.05H210.2V34.77H208.58V37.44C208.58 37.7867 208.637 38.0267 208.75 38.16C208.87 38.2867 209.053 38.35 209.3 38.35C209.42 38.35 209.543 38.3367 209.67 38.31C209.803 38.2767 209.947 38.2233 210.1 38.15L210.35 38.82ZM212.299 32.84H211.379V31.92H212.299V32.84ZM212.249 39H211.429V34.05H212.249V39ZM217.937 36.22V36.82C217.937 37.5267 217.753 38.0833 217.387 38.49C217.027 38.8967 216.51 39.1 215.837 39.1C215.17 39.1 214.653 38.8967 214.287 38.49C213.92 38.0833 213.737 37.5267 213.737 36.82V36.22C213.737 35.5267 213.917 34.9767 214.277 34.57C214.643 34.1567 215.163 33.95 215.837 33.95C216.51 33.95 217.027 34.1567 217.387 34.57C217.753 34.9767 217.937 35.5267 217.937 36.22ZM217.087 36.22C217.087 35.7467 216.98 35.3767 216.767 35.11C216.553 34.8367 216.243 34.7 215.837 34.7C215.437 34.7 215.127 34.8367 214.907 35.11C214.693 35.3767 214.587 35.7467 214.587 36.22V36.82C214.587 37.3133 214.693 37.6933 214.907 37.96C215.127 38.2267 215.437 38.36 215.837 38.36C216.243 38.36 216.553 38.2267 216.767 37.96C216.98 37.6933 217.087 37.3133 217.087 36.82V36.22ZM221.807 34.72C221.62 34.72 221.4 34.7667 221.147 34.86C220.9 34.9533 220.6 35.1433 220.247 35.43V39H219.427V34.05H220.207V34.74C220.56 34.44 220.88 34.2333 221.167 34.12C221.46 34.0067 221.74 33.95 222.007 33.95C222.467 33.95 222.817 34.0967 223.057 34.39C223.304 34.6767 223.427 35.0867 223.427 35.62V39H222.607V35.74C222.607 35.06 222.34 34.72 221.807 34.72ZM226.751 36.2C226.751 37.0067 226.591 37.7767 226.271 38.51C225.951 39.2367 225.455 39.91 224.781 40.53L224.221 39.97C224.801 39.41 225.225 38.8233 225.491 38.21C225.765 37.59 225.901 36.92 225.901 36.2V35.83C225.901 35.1167 225.765 34.4533 225.491 33.84C225.225 33.22 224.801 32.6267 224.221 32.06L224.781 31.5C225.455 32.12 225.951 32.7967 226.271 33.53C226.591 34.2567 226.751 35.0233 226.751 35.83V36.2Z" fill="white"/>
</svg>
